REM DIRINDEX 1\5,1\2\6,1\2\7,1\3\8,1\3\9,1\4\10,1\4\11,1\4\12
REM DIRNAME folder01,folder02,folder03,folder04,folder05,folder06,folder07,folder08,folder09,folder10,folder11,folder12
TITLE ""
FILE "EJE_DB3000_5th_3B_20.mp3" MP3
  TRACK 01 AUDIO
    TITLE "0:"
    INDEX 01 00:00:00
  TRACK 02 AUDIO
    TITLE "10:cjc026_08931"
    INDEX 01 00:00:05
  TRACK 03 AUDIO
    TITLE "0:"
    INDEX 01 00:01:01
  TRACK 04 AUDIO
    TITLE "11:cjc026_08932"
    INDEX 01 00:01:28
  TRACK 05 AUDIO
    TITLE "0:"
    INDEX 01 00:02:32
  TRACK 06 AUDIO
    TITLE "12:cjc026_08933"
    INDEX 01 00:02:57
  TRACK 07 AUDIO
    TITLE "0:"
    INDEX 01 00:03:53
  TRACK 08 AUDIO
    TITLE "10:cjc026_08934"
    INDEX 01 00:04:05
  TRACK 09 AUDIO
    TITLE "0:"
    INDEX 01 00:05:05
  TRACK 10 AUDIO
    TITLE "11:cjc026_08935"
    INDEX 01 00:05:30
  TRACK 11 AUDIO
    TITLE "0:"
    INDEX 01 00:06:45
  TRACK 12 AUDIO
    TITLE "12:cjc026_08936"
    INDEX 01 00:06:73
  TRACK 13 AUDIO
    TITLE "0:"
    INDEX 01 00:07:72
  TRACK 14 AUDIO
    TITLE "10:cjc026_08937"
    INDEX 01 00:08:26
  TRACK 15 AUDIO
    TITLE "0:"
    INDEX 01 00:09:30
  TRACK 16 AUDIO
    TITLE "11:cjc026_08938"
    INDEX 01 00:09:57
  TRACK 17 AUDIO
    TITLE "0:"
    INDEX 01 00:10:65
  TRACK 18 AUDIO
    TITLE "12:cjc026_08939"
    INDEX 01 00:11:17
  TRACK 19 AUDIO
    TITLE "0:"
    INDEX 01 00:12:22
  TRACK 20 AUDIO
    TITLE "10:cjc026_08940"
    INDEX 01 00:12:48
  TRACK 21 AUDIO
    TITLE "0:"
    INDEX 01 00:13:43
  TRACK 22 AUDIO
    TITLE "11:cjc026_08941"
    INDEX 01 00:13:69
  TRACK 23 AUDIO
    TITLE "0:"
    INDEX 01 00:15:01
  TRACK 24 AUDIO
    TITLE "12:cjc026_08942"
    INDEX 01 00:15:27
  TRACK 25 AUDIO
    TITLE "0:"
    INDEX 01 00:16:22
  TRACK 26 AUDIO
    TITLE "10:cjc026_08943"
    INDEX 01 00:16:48
  TRACK 27 AUDIO
    TITLE "0:"
    INDEX 01 00:17:35
  TRACK 28 AUDIO
    TITLE "11:cjc026_08944"
    INDEX 01 00:17:65
  TRACK 29 AUDIO
    TITLE "0:"
    INDEX 01 00:18:66
  TRACK 30 AUDIO
    TITLE "12:cjc026_08945"
    INDEX 01 00:19:18
  TRACK 31 AUDIO
    TITLE "0:"
    INDEX 01 00:20:06
  TRACK 32 AUDIO
    TITLE "10:cjc026_08946"
    INDEX 01 00:20:36
  TRACK 33 AUDIO
    TITLE "0:"
    INDEX 01 00:21:37
  TRACK 34 AUDIO
    TITLE "11:cjc026_08947"
    INDEX 01 00:21:62
  TRACK 35 AUDIO
    TITLE "0:"
    INDEX 01 00:23:06
  TRACK 36 AUDIO
    TITLE "12:cjc026_08948"
    INDEX 01 00:23:34
  TRACK 37 AUDIO
    TITLE "0:"
    INDEX 01 00:24:33
  TRACK 38 AUDIO
    TITLE "10:cjc026_08949"
    INDEX 01 00:24:61
  TRACK 39 AUDIO
    TITLE "0:"
    INDEX 01 00:25:56
  TRACK 40 AUDIO
    TITLE "11:cjc026_08950"
    INDEX 01 00:26:09
  TRACK 41 AUDIO
    TITLE "0:"
    INDEX 01 00:27:28
  TRACK 42 AUDIO
    TITLE "12:cjc026_08951"
    INDEX 01 00:27:53
  TRACK 43 AUDIO
    TITLE "0:"
    INDEX 01 00:28:49
  TRACK 44 AUDIO
    TITLE "10:cjc026_08952"
    INDEX 01 00:29:03
  TRACK 45 AUDIO
    TITLE "0:"
    INDEX 01 00:30:03
  TRACK 46 AUDIO
    TITLE "11:cjc026_08953"
    INDEX 01 00:30:28
  TRACK 47 AUDIO
    TITLE "0:"
    INDEX 01 00:31:35
  TRACK 48 AUDIO
    TITLE "12:cjc026_08954"
    INDEX 01 00:31:63
  TRACK 49 AUDIO
    TITLE "0:"
    INDEX 01 00:32:62
  TRACK 50 AUDIO
    TITLE "10:cjc026_08955"
    INDEX 01 00:33:15
  TRACK 51 AUDIO
    TITLE "0:"
    INDEX 01 00:34:06
  TRACK 52 AUDIO
    TITLE "11:cjc026_08956"
    INDEX 01 00:34:38
  TRACK 53 AUDIO
    TITLE "0:"
    INDEX 01 00:35:53
  TRACK 54 AUDIO
    TITLE "12:cjc026_08957"
    INDEX 01 00:36:05
  TRACK 55 AUDIO
    TITLE "0:"
    INDEX 01 00:36:70
  TRACK 56 AUDIO
    TITLE "10:cjc026_08958"
    INDEX 01 00:37:26
  TRACK 57 AUDIO
    TITLE "0:"
    INDEX 01 00:38:24
  TRACK 58 AUDIO
    TITLE "11:cjc026_08959"
    INDEX 01 00:38:51
  TRACK 59 AUDIO
    TITLE "0:"
    INDEX 01 00:39:60
  TRACK 60 AUDIO
    TITLE "12:cjc026_08960"
    INDEX 01 00:40:15
  TRACK 61 AUDIO
    TITLE "0:"
    INDEX 01 00:41:12
  TRACK 62 AUDIO
    TITLE "10:cjc026_08961"
    INDEX 01 00:41:40
  TRACK 63 AUDIO
    TITLE "0:"
    INDEX 01 00:42:49
  TRACK 64 AUDIO
    TITLE "11:cjc026_08962"
    INDEX 01 00:42:74
  TRACK 65 AUDIO
    TITLE "0:"
    INDEX 01 00:44:18
  TRACK 66 AUDIO
    TITLE "12:cjc026_08963"
    INDEX 01 00:44:46
  TRACK 67 AUDIO
    TITLE "0:"
    INDEX 01 00:45:55
  TRACK 68 AUDIO
    TITLE "10:cjc026_08964"
    INDEX 01 00:46:06
  TRACK 69 AUDIO
    TITLE "0:"
    INDEX 01 00:46:72
  TRACK 70 AUDIO
    TITLE "11:cjc026_08965"
    INDEX 01 00:47:27
  TRACK 71 AUDIO
    TITLE "0:"
    INDEX 01 00:48:42
  TRACK 72 AUDIO
    TITLE "12:cjc026_08966"
    INDEX 01 00:48:69
  TRACK 73 AUDIO
    TITLE "0:"
    INDEX 01 00:49:59
